<svg width="512" height="512" viewBox="0 0 512 512" fill="none" xmlns="http://www.w3.org/2000/svg">
<rect x="0.5" y="0.5" width="511" height="511" fill="#111111" stroke="#595959"/>
<mask id="path-2-outside-1_1_16" maskUnits="userSpaceOnUse" x="165" y="150" width="97" height="144" fill="black">
<rect fill="white" x="165" y="150" width="97" height="144"/>
<path d="M176.2 292.6C172.867 292.6 170.333 291.6 168.6 289.6C167 287.733 166.4 285.333 166.8 282.4C169.067 265.867 171.133 249.533 173 233.4C174.867 217.267 177.067 200.533 179.6 183.2C180.667 176.8 181.467 171.333 182 166.8C182.667 162.267 183.733 158.733 185.2 156.2C186.667 153.533 189.2 152 192.8 151.6C195.467 151.333 198 152.4 200.4 154.8C202.8 157.2 203.733 161.4 203.2 167.4C202 179.933 200.4 193.4 198.4 207.8C196.533 222.2 194.467 236.867 192.2 251.8L189.4 270.6C200.467 270.067 211 269.4 221 268.6C231 267.667 239.2 267.333 245.6 267.6C249.067 267.733 252.067 268.467 254.6 269.8C257.267 271.133 258.867 273.533 259.4 277C260.6 284.067 255.2 287.8 243.2 288.2C234.133 288.467 223.667 289.2 211.8 290.4C200.067 291.733 188.2 292.467 176.2 292.6Z"/>
</mask>
<path d="M176.2 292.6C172.867 292.6 170.333 291.6 168.6 289.6C167 287.733 166.4 285.333 166.8 282.4C169.067 265.867 171.133 249.533 173 233.4C174.867 217.267 177.067 200.533 179.6 183.2C180.667 176.8 181.467 171.333 182 166.8C182.667 162.267 183.733 158.733 185.2 156.2C186.667 153.533 189.2 152 192.8 151.6C195.467 151.333 198 152.4 200.4 154.8C202.8 157.2 203.733 161.4 203.2 167.4C202 179.933 200.4 193.4 198.4 207.8C196.533 222.2 194.467 236.867 192.2 251.8L189.4 270.6C200.467 270.067 211 269.4 221 268.6C231 267.667 239.2 267.333 245.6 267.6C249.067 267.733 252.067 268.467 254.6 269.8C257.267 271.133 258.867 273.533 259.4 277C260.6 284.067 255.2 287.8 243.2 288.2C234.133 288.467 223.667 289.2 211.8 290.4C200.067 291.733 188.2 292.467 176.2 292.6Z" fill="white"/>
<path d="M176.2 292.6V293.6L176.211 293.6L176.2 292.6ZM168.6 289.6L167.841 290.251L167.844 290.255L168.6 289.6ZM166.8 282.4L165.809 282.264L165.809 282.265L166.8 282.4ZM173 233.4L173.993 233.515V233.515L173 233.4ZM179.6 183.2L178.614 183.036L178.612 183.045L178.611 183.055L179.6 183.2ZM182 166.8L181.011 166.655L181.009 166.669L181.007 166.683L182 166.8ZM185.2 156.2L186.065 156.701L186.071 156.692L186.076 156.682L185.2 156.2ZM192.8 151.6L192.7 150.605L192.69 150.606L192.8 151.6ZM200.4 154.8L199.693 155.507V155.507L200.4 154.8ZM203.2 167.4L204.195 167.495L204.196 167.489L203.2 167.4ZM198.4 207.8L197.409 207.662L197.408 207.671L198.4 207.8ZM192.2 251.8L191.211 251.65L191.211 251.653L192.2 251.8ZM189.4 270.6L188.411 270.453L188.231 271.657L189.448 271.599L189.4 270.6ZM221 268.6L221.08 269.597L221.093 269.596L221 268.6ZM245.6 267.6L245.558 268.599L245.562 268.599L245.6 267.6ZM254.6 269.8L254.134 270.685L254.143 270.69L254.153 270.694L254.6 269.8ZM259.4 277L258.412 277.152L258.413 277.16L258.414 277.167L259.4 277ZM243.2 288.2L243.229 289.2L243.233 289.199L243.2 288.2ZM211.8 290.4L211.699 289.405L211.687 289.406L211.8 290.4ZM176.2 292.6V291.6C173.076 291.6 170.852 290.671 169.356 288.945L168.6 289.6L167.844 290.255C169.815 292.529 172.658 293.6 176.2 293.6V292.6ZM168.6 289.6L169.359 288.949C167.983 287.343 167.421 285.248 167.791 282.535L166.8 282.4L165.809 282.265C165.379 285.418 166.017 288.123 167.841 290.251L168.6 289.6ZM166.8 282.4L167.791 282.536C170.058 265.996 172.126 249.655 173.993 233.515L173 233.4L172.007 233.285C170.141 249.411 168.075 265.738 165.809 282.264L166.8 282.4ZM173 233.4L173.993 233.515C175.859 217.392 178.057 200.669 180.589 183.345L179.6 183.2L178.611 183.055C176.076 200.398 173.875 217.141 172.007 233.285L173 233.4ZM179.6 183.2L180.586 183.364C181.655 176.955 182.457 171.471 182.993 166.917L182 166.8L181.007 166.683C180.476 171.196 179.679 176.645 178.614 183.036L179.6 183.2ZM182 166.8L182.989 166.945C183.647 162.475 184.688 159.081 186.065 156.701L185.2 156.2L184.335 155.699C182.779 158.386 181.686 162.059 181.011 166.655L182 166.8ZM185.2 156.2L186.076 156.682C187.355 154.357 189.564 152.966 192.91 152.594L192.8 151.6L192.69 150.606C188.836 151.034 185.978 152.71 184.324 155.718L185.2 156.2ZM192.8 151.6L192.9 152.595C195.191 152.366 197.444 153.258 199.693 155.507L200.4 154.8L201.107 154.093C198.556 151.542 195.742 150.301 192.701 150.605L192.8 151.6ZM200.4 154.8L199.693 155.507C201.768 157.582 202.73 161.39 202.204 167.311L203.2 167.4L204.196 167.489C204.736 161.41 203.832 156.818 201.107 154.093L200.4 154.8ZM203.2 167.4L202.205 167.305C201.006 179.822 199.408 193.274 197.41 207.662L198.4 207.8L199.39 207.938C201.392 193.526 202.994 180.045 204.195 167.495L203.2 167.4ZM198.4 207.8L197.408 207.671C195.543 222.064 193.477 236.723 191.211 251.65L192.2 251.8L193.189 251.95C195.456 237.01 197.524 222.336 199.392 207.929L198.4 207.8ZM192.2 251.8L191.211 251.653L188.411 270.453L189.4 270.6L190.389 270.747L193.189 251.947L192.2 251.8ZM189.4 270.6L189.448 271.599C200.524 271.065 211.068 270.398 221.08 269.597L221 268.6L220.92 267.603C210.932 268.402 200.409 269.068 189.352 269.601L189.4 270.6ZM221 268.6L221.093 269.596C231.07 268.664 239.221 268.335 245.558 268.599L245.6 267.6L245.642 266.601C239.179 266.332 230.93 266.669 220.907 267.604L221 268.6ZM245.6 267.6L245.562 268.599C248.91 268.728 251.758 269.434 254.134 270.685L254.6 269.8L255.066 268.915C252.375 267.499 249.223 266.739 245.638 266.601L245.6 267.6ZM254.6 269.8L254.153 270.694C256.475 271.856 257.918 273.941 258.412 277.152L259.4 277L260.388 276.848C259.816 273.125 258.058 270.411 255.047 268.906L254.6 269.8ZM259.4 277L258.414 277.167C258.691 278.798 258.576 280.167 258.131 281.313C257.687 282.452 256.89 283.442 255.681 284.277C253.223 285.977 249.112 287.002 243.167 287.201L243.2 288.2L243.233 289.199C249.288 288.998 253.877 287.956 256.819 285.923C258.31 284.891 259.388 283.598 259.995 282.037C260.599 280.483 260.709 278.735 260.386 276.833L259.4 277ZM243.2 288.2L243.171 287.2C234.074 287.468 223.583 288.203 211.699 289.405L211.8 290.4L211.901 291.395C223.75 290.197 234.193 289.465 243.229 289.2L243.2 288.2ZM211.8 290.4L211.687 289.406C199.988 290.736 188.155 291.467 176.189 291.6L176.2 292.6L176.211 293.6C188.245 293.466 200.145 292.731 211.913 291.394L211.8 290.4Z" fill="#595959" mask="url(#path-2-outside-1_1_16)"/>
<mask id="path-4-outside-2_1_16" maskUnits="userSpaceOnUse" x="240" y="205" width="123" height="146" fill="black">
<rect fill="white" x="240" y="205" width="123" height="146"/>
<path d="M250.6 346.8C247.267 346.933 244.8 345.933 243.2 343.8C241.733 341.533 241.267 338.933 241.8 336C245.267 319.733 248.467 303.6 251.4 287.6C254.467 271.467 257.867 254.933 261.6 238C263.067 231.733 264.2 226.333 265 221.8C265.933 217.267 267.2 213.8 268.8 211.4C270.533 208.867 273.2 207.533 276.8 207.4C278.4 207.4 279.933 207.8 281.4 208.6C283 209.4 284.267 210.733 285.2 212.6C291.6 210.2 297.867 208.6 304 207.8C310.267 206.867 316.8 206.733 323.6 207.4C330.133 207.933 336.267 209.467 342 212C347.867 214.4 352.6 217.667 356.2 221.8C359.933 225.933 361.8 230.933 361.8 236.8C361.8 242.267 359.8 247.8 355.8 253.4C351.8 259 346.067 264.267 338.6 269.2C331.267 274.133 322.533 278.467 312.4 282.2C319.333 290.467 326.067 298.6 332.6 306.6C339.267 314.467 345.333 321.467 350.8 327.6C354.4 332 356.467 335.933 357 339.4C357.533 342.733 356.2 345.4 353 347.4C350.067 349.133 347.2 349.467 344.4 348.4C341.733 347.467 339.267 345.733 337 343.2C333.4 339.467 329 334.667 323.8 328.8C318.6 322.933 313 316.533 307 309.6C301.133 302.667 295.267 295.733 289.4 288.8C284.067 289.867 278.6 290.8 273 291.6C271.8 296.933 270.6 302.133 269.4 307.2C267.267 315.867 265.467 322.8 264 328C262.533 333.2 261.333 336.933 260.4 339.2C259.2 341.867 257.733 343.8 256 345C254.267 346.2 252.467 346.8 250.6 346.8ZM312 227.6C307.2 227.333 302.467 227.733 297.8 228.8C293.267 229.867 288.867 231.2 284.6 232.8C283.667 238.8 282.6 244.933 281.4 251.2C280.2 257.467 278.933 263.933 277.6 270.6C289.6 269.667 300.067 267.533 309 264.2C318.067 260.867 325.067 257.133 330 253C334.933 248.733 337.4 244.8 337.4 241.2C337.4 237.733 335.533 234.733 331.8 232.2C328.2 229.533 321.6 228 312 227.6Z"/>
</mask>
<path d="M250.6 346.8C247.267 346.933 244.8 345.933 243.2 343.8C241.733 341.533 241.267 338.933 241.8 336C245.267 319.733 248.467 303.6 251.4 287.6C254.467 271.467 257.867 254.933 261.6 238C263.067 231.733 264.2 226.333 265 221.8C265.933 217.267 267.2 213.8 268.8 211.4C270.533 208.867 273.2 207.533 276.8 207.4C278.4 207.4 279.933 207.8 281.4 208.6C283 209.4 284.267 210.733 285.2 212.6C291.6 210.2 297.867 208.6 304 207.8C310.267 206.867 316.8 206.733 323.6 207.4C330.133 207.933 336.267 209.467 342 212C347.867 214.4 352.6 217.667 356.2 221.8C359.933 225.933 361.8 230.933 361.8 236.8C361.8 242.267 359.8 247.8 355.8 253.4C351.8 259 346.067 264.267 338.6 269.2C331.267 274.133 322.533 278.467 312.4 282.2C319.333 290.467 326.067 298.6 332.6 306.6C339.267 314.467 345.333 321.467 350.8 327.6C354.4 332 356.467 335.933 357 339.4C357.533 342.733 356.2 345.4 353 347.4C350.067 349.133 347.2 349.467 344.4 348.4C341.733 347.467 339.267 345.733 337 343.2C333.4 339.467 329 334.667 323.8 328.8C318.6 322.933 313 316.533 307 309.6C301.133 302.667 295.267 295.733 289.4 288.8C284.067 289.867 278.6 290.8 273 291.6C271.8 296.933 270.6 302.133 269.4 307.2C267.267 315.867 265.467 322.8 264 328C262.533 333.2 261.333 336.933 260.4 339.2C259.2 341.867 257.733 343.8 256 345C254.267 346.2 252.467 346.8 250.6 346.8ZM312 227.6C307.2 227.333 302.467 227.733 297.8 228.8C293.267 229.867 288.867 231.2 284.6 232.8C283.667 238.8 282.6 244.933 281.4 251.2C280.2 257.467 278.933 263.933 277.6 270.6C289.6 269.667 300.067 267.533 309 264.2C318.067 260.867 325.067 257.133 330 253C334.933 248.733 337.4 244.8 337.4 241.2C337.4 237.733 335.533 234.733 331.8 232.2C328.2 229.533 321.6 228 312 227.6Z" fill="white"/>
<path d="M250.6 346.8V345.8H250.58L250.56 345.801L250.6 346.8ZM243.2 343.8L242.36 344.343L242.379 344.372L242.4 344.4L243.2 343.8ZM241.8 336L240.822 335.792L240.819 335.806L240.816 335.821L241.8 336ZM251.4 287.6L250.418 287.413L250.416 287.42L251.4 287.6ZM261.6 238L260.626 237.772L260.623 237.785L261.6 238ZM265 221.8L264.021 221.598L264.018 221.612L264.015 221.626L265 221.8ZM268.8 211.4L267.975 210.835L267.968 210.845L268.8 211.4ZM276.8 207.4V206.4H276.781L276.763 206.401L276.8 207.4ZM281.4 208.6L280.921 209.478L280.937 209.486L280.953 209.494L281.4 208.6ZM285.2 212.6L284.306 213.047L284.708 213.852L285.551 213.536L285.2 212.6ZM304 207.8L304.129 208.792L304.138 208.79L304.147 208.789L304 207.8ZM323.6 207.4L323.502 208.395L323.511 208.396L323.519 208.397L323.6 207.4ZM342 212L341.596 212.915L341.609 212.92L341.621 212.926L342 212ZM356.2 221.8L355.446 222.457L355.452 222.464L355.458 222.47L356.2 221.8ZM355.8 253.4L356.614 253.981V253.981L355.8 253.4ZM338.6 269.2L338.049 268.366L338.042 268.37L338.6 269.2ZM312.4 282.2L312.054 281.262L310.72 281.753L311.634 282.843L312.4 282.2ZM332.6 306.6L331.825 307.233L331.831 307.24L331.837 307.247L332.6 306.6ZM350.8 327.6L351.574 326.967L351.561 326.95L351.547 326.935L350.8 327.6ZM357 339.4L356.012 339.552L356.013 339.558L357 339.4ZM353 347.4L353.509 348.261L353.519 348.255L353.53 348.248L353 347.4ZM344.4 348.4L344.756 347.466L344.743 347.461L344.73 347.456L344.4 348.4ZM337 343.2L337.745 342.533L337.733 342.519L337.72 342.506L337 343.2ZM323.8 328.8L324.548 328.137V328.137L323.8 328.8ZM307 309.6L306.237 310.246L306.244 310.254L307 309.6ZM289.4 288.8L290.163 288.154L289.782 287.704L289.204 287.819L289.4 288.8ZM273 291.6L272.859 290.61L272.176 290.708L272.024 291.38L273 291.6ZM269.4 307.2L270.371 307.439L270.373 307.43L269.4 307.2ZM264 328L264.962 328.271V328.271L264 328ZM260.4 339.2L261.312 339.61L261.319 339.596L261.325 339.581L260.4 339.2ZM256 345L255.431 344.178H255.431L256 345ZM312 227.6L311.945 228.599L311.958 228.599L312 227.6ZM297.8 228.8L297.577 227.825L297.571 227.827L297.8 228.8ZM284.6 232.8L284.249 231.864L283.702 232.069L283.612 232.646L284.6 232.8ZM281.4 251.2L282.382 251.388V251.388L281.4 251.2ZM277.6 270.6L276.619 270.404L276.36 271.699L277.678 271.597L277.6 270.6ZM309 264.2L308.655 263.261L308.65 263.263L309 264.2ZM330 253L330.642 253.767L330.648 253.761L330.654 253.756L330 253ZM331.8 232.2L331.205 233.004L331.221 233.016L331.239 233.027L331.8 232.2ZM250.6 346.8L250.56 345.801C247.462 345.925 245.353 345.004 244 343.2L243.2 343.8L242.4 344.4C244.247 346.863 247.071 347.942 250.64 347.799L250.6 346.8ZM243.2 343.8L244.04 343.257C242.726 341.227 242.291 338.89 242.784 336.179L241.8 336L240.816 335.821C240.242 338.976 240.741 341.84 242.36 344.343L243.2 343.8ZM241.8 336L242.778 336.208C246.247 319.933 249.449 303.79 252.384 287.78L251.4 287.6L250.416 287.42C247.485 303.41 244.287 319.534 240.822 335.792L241.8 336ZM251.4 287.6L252.382 287.787C255.447 271.663 258.845 255.14 262.577 238.215L261.6 238L260.623 237.785C256.888 254.727 253.486 271.27 250.418 287.413L251.4 287.6ZM261.6 238L262.574 238.228C264.043 231.95 265.181 226.531 265.985 221.974L265 221.8L264.015 221.626C263.219 226.136 262.09 231.517 260.626 237.772L261.6 238ZM265 221.8L265.979 222.002C266.901 217.527 268.134 214.202 269.632 211.955L268.8 211.4L267.968 210.845C266.266 213.398 264.966 217.006 264.021 221.598L265 221.8ZM268.8 211.4L269.625 211.965C271.147 209.741 273.491 208.523 276.837 208.399L276.8 207.4L276.763 206.401C272.909 206.543 269.92 207.993 267.975 210.835L268.8 211.4ZM276.8 207.4V208.4C278.225 208.4 279.595 208.754 280.921 209.478L281.4 208.6L281.879 207.722C280.272 206.846 278.575 206.4 276.8 206.4V207.4ZM281.4 208.6L280.953 209.494C282.328 210.182 283.452 211.341 284.306 213.047L285.2 212.6L286.094 212.153C285.081 210.126 283.672 208.618 281.847 207.706L281.4 208.6ZM285.2 212.6L285.551 213.536C291.887 211.16 298.079 209.581 304.129 208.792L304 207.8L303.871 206.808C297.654 207.619 291.313 209.24 284.849 211.664L285.2 212.6ZM304 207.8L304.147 208.789C310.327 207.869 316.778 207.736 323.502 208.395L323.6 207.4L323.698 206.405C316.822 205.731 310.206 205.865 303.853 206.811L304 207.8ZM323.6 207.4L323.519 208.397C329.946 208.921 335.969 210.429 341.596 212.915L342 212L342.404 211.085C336.564 208.505 330.321 206.945 323.681 206.403L323.6 207.4ZM342 212L341.621 212.926C347.366 215.276 351.963 218.458 355.446 222.457L356.2 221.8L356.954 221.143C353.237 216.875 348.367 213.524 342.379 211.074L342 212ZM356.2 221.8L355.458 222.47C359.016 226.409 360.8 231.167 360.8 236.8H361.8H362.8C362.8 230.7 360.851 225.457 356.942 221.13L356.2 221.8ZM361.8 236.8H360.8C360.8 242.01 358.897 247.344 354.986 252.819L355.8 253.4L356.614 253.981C360.703 248.256 362.8 242.524 362.8 236.8H361.8ZM355.8 253.4L354.986 252.819C351.075 258.294 345.442 263.481 338.049 268.366L338.6 269.2L339.151 270.034C346.691 265.053 352.525 259.706 356.614 253.981L355.8 253.4ZM338.6 269.2L338.042 268.37C330.787 273.251 322.129 277.55 312.054 281.262L312.4 282.2L312.746 283.138C322.938 279.383 331.746 275.016 339.158 270.03L338.6 269.2ZM312.4 282.2L311.634 282.843C318.564 291.106 325.295 299.236 331.825 307.233L332.6 306.6L333.375 305.967C326.838 297.964 320.102 289.827 313.166 281.557L312.4 282.2ZM332.6 306.6L331.837 307.247C338.508 315.118 344.58 322.124 350.053 328.265L350.8 327.6L351.547 326.935C346.087 320.809 340.025 313.815 333.363 305.953L332.6 306.6ZM350.8 327.6L350.026 328.233C353.576 332.572 355.517 336.34 356.012 339.552L357 339.4L357.988 339.248C357.416 335.527 355.224 331.428 351.574 326.967L350.8 327.6ZM357 339.4L356.013 339.558C356.251 341.047 356.067 342.331 355.506 343.453C354.94 344.583 353.955 345.624 352.47 346.552L353 347.4L353.53 348.248C355.245 347.176 356.526 345.884 357.294 344.347C358.067 342.803 358.283 341.087 357.987 339.242L357 339.4ZM353 347.4L352.491 346.539C349.779 348.142 347.23 348.408 344.756 347.466L344.4 348.4L344.044 349.334C347.17 350.525 350.354 350.125 353.509 348.261L353 347.4ZM344.4 348.4L344.73 347.456C342.253 346.589 339.922 344.966 337.745 342.533L337 343.2L336.255 343.867C338.611 346.501 341.214 348.344 344.07 349.344L344.4 348.4ZM337 343.2L337.72 342.506C334.133 338.786 329.743 333.998 324.548 328.137L323.8 328.8L323.052 329.463C328.257 335.336 332.667 340.147 336.28 343.894L337 343.2ZM323.8 328.8L324.548 328.137C319.351 322.273 313.754 315.876 307.756 308.946L307 309.6L306.244 310.254C312.246 317.19 317.849 323.593 323.052 329.463L323.8 328.8ZM307 309.6L307.763 308.954C301.897 302.021 296.03 295.087 290.163 288.154L289.4 288.8L288.637 289.446C294.503 296.379 300.37 303.313 306.237 310.246L307 309.6ZM289.4 288.8L289.204 287.819C283.889 288.882 278.441 289.813 272.859 290.61L273 291.6L273.141 292.59C278.759 291.787 284.244 290.851 289.596 289.781L289.4 288.8ZM273 291.6L272.024 291.38C270.825 296.71 269.626 301.907 268.427 306.97L269.4 307.2L270.373 307.43C271.574 302.36 272.775 297.156 273.976 291.82L273 291.6ZM269.4 307.2L268.429 306.961C266.297 315.623 264.5 322.544 263.038 327.729L264 328L264.962 328.271C266.433 323.056 268.236 316.111 270.371 307.439L269.4 307.2ZM264 328L263.038 327.729C261.572 332.925 260.385 336.61 259.475 338.819L260.4 339.2L261.325 339.581C262.282 337.257 263.495 333.475 264.962 328.271L264 328ZM260.4 339.2L259.488 338.79C258.335 341.352 256.967 343.114 255.431 344.178L256 345L256.569 345.822C258.499 344.486 260.065 342.381 261.312 339.61L260.4 339.2ZM256 345L255.431 344.178C253.842 345.278 252.238 345.8 250.6 345.8V346.8V347.8C252.696 347.8 254.691 347.122 256.569 345.822L256 345ZM312 227.6L312.055 226.602C307.162 226.33 302.335 226.738 297.577 227.825L297.8 228.8L298.023 229.775C302.598 228.729 307.238 228.337 311.945 228.598L312 227.6ZM297.8 228.8L297.571 227.827C292.997 228.903 288.556 230.248 284.249 231.864L284.6 232.8L284.951 233.736C289.177 232.152 293.536 230.831 298.029 229.773L297.8 228.8ZM284.6 232.8L283.612 232.646C282.68 238.634 281.616 244.756 280.418 251.012L281.4 251.2L282.382 251.388C283.584 245.111 284.653 238.966 285.588 232.954L284.6 232.8ZM281.4 251.2L280.418 251.012C279.218 257.276 277.952 263.74 276.619 270.404L277.6 270.6L278.581 270.796C279.914 264.127 281.182 257.658 282.382 251.388L281.4 251.2ZM277.6 270.6L277.678 271.597C289.747 270.658 300.309 268.51 309.35 265.137L309 264.2L308.65 263.263C299.824 266.557 289.453 268.675 277.522 269.603L277.6 270.6ZM309 264.2L309.345 265.139C318.471 261.783 325.588 258.001 330.642 253.767L330 253L329.358 252.233C324.545 256.265 317.662 259.95 308.655 263.261L309 264.2ZM330 253L330.654 253.756C335.641 249.443 338.4 245.255 338.4 241.2H337.4H336.4C336.4 244.345 334.226 248.023 329.346 252.244L330 253ZM337.4 241.2H338.4C338.4 237.304 336.277 234.029 332.362 231.373L331.8 232.2L331.239 233.027C334.79 235.437 336.4 238.162 336.4 241.2H337.4ZM331.8 232.2L332.395 231.396C328.533 228.535 321.659 227.002 312.042 226.601L312 227.6L311.958 228.599C321.541 228.998 327.868 230.531 331.205 233.004L331.8 232.2Z" fill="#595959" mask="url(#path-4-outside-2_1_16)"/>
<circle cx="263" cy="256" r="195" stroke="#595959" stroke-width="10"/>
<line x1="196.481" y1="438.099" x2="377.481" y2="103.099" stroke="white" stroke-opacity="0.15" stroke-width="8"/>
<line x1="134.481" y1="404.099" x2="315.481" y2="69.0986" stroke="white" stroke-opacity="0.15" stroke-width="8"/>
</svg>
